<svg xmlns="http://www.w3.org/2000/svg" width="320" height="640" viewBox="0 0 320 640" fill="none">
  <rect width="320" height="640" rx="40" fill="#0f172a"/>
  <rect x="12" y="12" width="296" height="616" rx="30" fill="#f8fafc"/>
  <rect x="120" y="26" width="80" height="16" rx="8" fill="#0f172a"/>
  <text x="160" y="90" font-family="sans-serif" font-size="20" font-weight="700" fill="#0f172a" text-anchor="middle">Today</text>
  <g font-family="sans-serif" font-size="15" fill="#334155">
    <rect x="32" y="120" width="256" height="56" rx="14" fill="#eef2ff"/>
    <circle cx="58" cy="148" r="12" fill="#4f46e5"/>
    <text x="82" y="153">Morning workout</text>
    <rect x="32" y="188" width="256" height="56" rx="14" fill="#eef2ff"/>
    <circle cx="58" cy="216" r="12" fill="#4f46e5"/>
    <text x="82" y="221">Read 20 pages</text>
    <rect x="32" y="256" width="256" height="56" rx="14" fill="#f1f5f9"/>
    <circle cx="58" cy="284" r="12" fill="none" stroke="#94a3b8" stroke-width="2"/>
    <text x="82" y="289">Meditate 10 min</text>
    <rect x="32" y="324" width="256" height="56" rx="14" fill="#f1f5f9"/>
    <circle cx="58" cy="352" r="12" fill="none" stroke="#94a3b8" stroke-width="2"/>
    <text x="82" y="357">Drink water</text>
  </g>
  <text x="160" y="440" font-family="sans-serif" font-size="13" fill="#94a3b8" text-anchor="middle">🔥 12-day streak</text>
  <rect x="32" y="470" width="256" height="120" rx="16" fill="#eef2ff"/>
  <text x="160" y="500" font-family="sans-serif" font-size="12" fill="#64748b" text-anchor="middle">Weekly progress</text>
  <g fill="#4f46e5">
    <rect x="60" y="540" width="16" height="30" rx="4"/>
    <rect x="92" y="530" width="16" height="40" rx="4"/>
    <rect x="124" y="548" width="16" height="22" rx="4"/>
    <rect x="156" y="520" width="16" height="50" rx="4"/>
    <rect x="188" y="536" width="16" height="34" rx="4"/>
    <rect x="220" y="526" width="16" height="44" rx="4"/>
    <rect x="252" y="544" width="16" height="26" rx="4"/>
  </g>
</svg>
